nColumns=28
nRows=40
DataType=double
version=3
OpenSimVersion=4.1
endheader
time	ground_force_1_vx	ground_force_1_vy	ground_force_1_vz	ground_force_1_px	ground_force_1_py	ground_force_1_pz	ground_force_1_mx	ground_force_1_my	ground_force_1_mz	ground_force_2_vx	ground_force_2_vy	ground_force_2_vz	ground_force_2_px	ground_force_2_py	ground_force_2_pz	ground_force_2_mx	ground_force_2_my	ground_force_2_mz	ground_force_3_vx	ground_force_3_vy	ground_force_3_vz	ground_force_3_px	ground_force_3_py	ground_force_3_pz	ground_force_3_mx	ground_force_3_my	ground_force_3_mz
3.25	-9.57088	315.785	-25.1938	-0.277011	0.006	-0.472496	0	-6.87101	0	15.8964	303.288	17.9919	-0.253713	0.006	-0.813069	0	2.74285	0	0	0	0	0	0	0	0	0	0
3.26	-9.94565	318.223	-24.3509	-0.276107	0.006	-0.472586	0	-6.85965	0	16.0325	308.63	17.9079	-0.253781	0.006	-0.812992	0	2.75398	0	0	0	0	0	0	0	0	0	0
3.27	-10.2685	321.309	-23.5478	-0.275205	0.006	-0.472669	0	-6.85609	0	16.1795	314.594	17.9286	-0.253852	0.006	-0.812962	0	2.78255	0	0	0	0	0	0	0	0	0	0
3.28	-10.547	325.078	-22.7968	-0.274318	0.006	-0.472747	0	-6.86083	0	16.337	321.148	18.0486	-0.253921	0.006	-0.812975	0	2.82918	0	0	0	0	0	0	0	0	0	0
3.29	-10.7946	329.515	-22.1016	-0.273459	0.006	-0.472823	0	-6.87351	0	16.4848	328.214	18.2591	-0.25398	0.006	-0.813024	0	2.89408	0	0	0	0	0	0	0	0	0	0
3.3	-11.0258	334.56	-21.461	-0.272638	0.006	-0.472899	0	-6.89332	0	16.5873	335.704	18.5458	-0.254017	0.006	-0.813102	0	2.97686	0	0	0	0	0	0	0	0	0	0
3.31	-11.2498	340.125	-20.8724	-0.271866	0.006	-0.472979	0	-6.91948	0	16.6077	343.544	18.8896	-0.254023	0.006	-0.813198	0	3.0765	0	0	0	0	0	0	0	0	0	0
3.32	-11.4674	346.103	-20.335	-0.271151	0.006	-0.473065	0	-6.95149	0	16.5226	351.694	19.2672	-0.253999	0.006	-0.813301	0	3.19136	0	0	0	0	0	0	0	0	0	0
3.33	-11.6712	352.387	-19.8511	-0.270499	0.006	-0.473159	0	-6.98929	0	16.3334	360.153	19.6516	-0.253953	0.006	-0.813398	0	3.31919	0	0	0	0	0	0	0	0	0	0
3.34	-11.8479	358.88	-19.425	-0.269915	0.006	-0.473258	0	-7.03324	0	16.0685	368.951	20.0137	-0.253902	0.006	-0.813479	0	3.45704	0	0	0	0	0	0	0	0	0	0
3.35	-11.9815	365.505	-19.0618	-0.269399	0.006	-0.473361	0	-7.08383	0	15.7785	378.134	20.3266	-0.253866	0.006	-0.813531	0	3.60133	0	0	0	0	0	0	0	0	0	0
3.36	-12.054	372.195	-18.7644	-0.268951	0.006	-0.473466	0	-7.14105	0	15.5243	387.755	20.5708	-0.253863	0.006	-0.813546	0	3.74791	0	0	0	0	0	0	0	0	0	0
3.37	-12.0455	378.875	-18.5296	-0.26857	0.006	-0.473571	0	-7.20387	0	15.3618	397.844	20.7376	-0.253907	0.006	-0.813522	0	3.89228	0	0	0	0	0	0	0	0	0	0
3.38	-11.9353	385.464	-18.3437	-0.268256	0.006	-0.47368	0	-7.27001	0	15.3255	408.381	20.8299	-0.253998	0.006	-0.813459	0	4.02965	0	0	0	0	0	0	0	0	0	0
3.39	-11.709	391.887	-18.1836	-0.26801	0.006	-0.473795	0	-7.3363	0	15.4177	419.276	20.8589	-0.254129	0.006	-0.813361	0	4.15506	0	0	0	0	0	0	0	0	0	0
3.4	-11.3657	398.085	-18.0221	-0.26783	0.006	-0.473922	0	-7.39926	0	15.6094	430.369	20.839	-0.254284	0.006	-0.813233	0	4.26375	0	0	0	0	0	0	0	0	0	0
3.41	-10.922	404.012	-17.8321	-0.267716	0.006	-0.474069	0	-7.45575	0	15.8531	441.473	20.7822	-0.254444	0.006	-0.81308	0	4.35161	0	0	0	0	0	0	0	0	0	0
3.42	-10.4107	409.622	-17.5908	-0.267662	0.006	-0.474241	0	-7.50335	0	16.1018	452.405	20.6952	-0.254592	0.006	-0.812906	0	4.41556	0	0	0	0	0	0	0	0	0	0
3.43	-9.87504	414.854	-17.2804	-0.267663	0.006	-0.474443	0	-7.54031	0	16.3214	463.022	20.5783	-0.254717	0.006	-0.812714	0	4.45369	0	0	0	0	0	0	0	0	0	0
3.44	-9.35799	419.645	-16.889	-0.267713	0.006	-0.47468	0	-7.56541	0	16.4955	473.225	20.4268	-0.254815	0.006	-0.812505	0	4.46534	0	0	0	0	0	0	0	0	0	0
3.45	-8.89013	423.942	-16.406	-0.267807	0.006	-0.474953	0	-7.578	0	16.6246	482.951	20.2335	-0.254885	0.006	-0.812279	0	4.4508	0	0	0	0	0	0	0	0	0	0
3.46	-8.48408	427.722	-15.8233	-0.267942	0.006	-0.475265	0	-7.57807	0	16.7228	492.158	19.9921	-0.25493	0.006	-0.812036	0	4.41103	0	0	0	0	0	0	0	0	0	0
3.47	-8.13729	430.987	-15.1368	-0.268115	0.006	-0.475612	0	-7.56606	0	16.8122	500.819	19.6988	-0.254954	0.006	-0.811779	0	4.34733	0	0	0	0	0	0	0	0	0	0
3.48	-7.83709	433.749	-14.347	-0.268326	0.006	-0.475992	0	-7.5424	0	16.9133	508.912	19.3542	-0.254961	0.006	-0.81151	0	4.26123	0	0	0	0	0	0	0	0	0	0
3.49	-7.56529	436.018	-13.4612	-0.268575	0.006	-0.4764	0	-7.50737	0	17.0343	516.404	18.9652	-0.254951	0.006	-0.811232	0	4.15433	0	0	0	0	0	0	0	0	0	0
3.5	-7.30106	437.791	-12.4909	-0.26886	0.006	-0.476831	0	-7.46064	0	17.1626	523.239	18.544	-0.25492	0.006	-0.810949	0	4.02822	0	0	0	0	0	0	0	0	0	0
3.51	-7.02476	439.048	-11.4497	-0.269182	0.006	-0.47728	0	-7.4011	0	17.2652	529.335	18.1056	-0.254861	0.006	-0.810666	0	3.88479	0	0	0	0	0	0	0	0	0	0
3.52	-6.72234	439.755	-10.3514	-0.269538	0.006	-0.477741	0	-7.32716	0	17.3002	534.6	17.6645	-0.254765	0.006	-0.810389	0	3.72652	0	0	0	0	0	0	0	0	0	0
3.53	-6.39009	439.868	-9.21023	-0.269926	0.006	-0.478211	0	-7.23738	0	17.2292	538.95	17.2313	-0.254625	0.006	-0.810121	0	3.55658	0	0	0	0	0	0	0	0	0	0
3.54	-6.03637	439.366	-8.04188	-0.270341	0.006	-0.478686	0	-7.13145	0	17.0256	542.326	16.811	-0.254439	0.006	-0.809864	0	3.37886	0	0	0	0	0	0	0	0	0	0
3.55	-5.67871	438.269	-6.8665	-0.270777	0.006	-0.47916	0	-7.01079	0	16.68	544.703	16.402	-0.254206	0.006	-0.809621	0	3.1976	0	0	0	0	0	0	0	0	0	0
3.56	-5.34176	436.644	-5.71012	-0.271223	0.006	-0.479627	0	-6.87853	0	16.1986	546.089	15.9972	-0.25393	0.006	-0.809392	0	3.0169	0	0	0	0	0	0	0	0	0	0
3.57	-5.05377	434.591	-4.60266	-0.271666	0.006	-0.480079	0	-6.739	0	15.5976	546.525	15.5861	-0.253619	0.006	-0.809173	0	2.84065	0	0	0	0	0	0	0	0	0	0
3.58	-4.84048	432.23	-3.57324	-0.272095	0.006	-0.480507	0	-6.59719	0	14.9012	546.09	15.157	-0.253281	0.006	-0.808964	0	2.67236	0	0	0	0	0	0	0	0	0	0
3.59	-4.71992	429.681	-2.64616	-0.272496	0.006	-0.480903	0	-6.458	0	14.1391	544.884	14.6974	-0.252927	0.006	-0.80876	0	2.51528	0	0	0	0	0	0	0	0	0	0
3.6	-4.70088	427.057	-1.83951	-0.272861	0.006	-0.481258	0	-6.32575	0	13.3406	543.026	14.196	-0.252567	0.006	-0.80856	0	2.3723	0	0	0	0	0	0	0	0	0	0
3.61	-4.78466	424.463	-1.16533	-0.273181	0.006	-0.481568	0	-6.20386	0	12.5302	540.635	13.6442	-0.252211	0.006	-0.808359	0	2.24579	0	0	0	0	0	0	0	0	0	0
3.62	-4.96847	421.993	-0.630891	-0.273452	0.006	-0.481828	0	-6.09476	0	11.7262	537.824	13.0374	-0.251872	0.006	-0.808156	0	2.13742	0	0	0	0	0	0	0	0	0	0
3.63	-5.24636	419.73	-0.239253	-0.273671	0.006	-0.482034	0	-5.99994	0	10.9434	534.687	12.375	-0.251557	0.006	-0.807949	0	2.04804	0	0	0	0	0	0	0	0	0	0
3.64	-5.60845	417.735	0.0116188	-0.273837	0.006	-0.482185	0	-5.91997	0	10.1955	531.3	11.6609	-0.251276	0.006	-0.807737	0	1.97759	0	0	0	0	0	0	0	0	0	0
